<mxfile host="app.diagrams.net" modified="2023-10-12T07:38:41.058Z" agent="Mozilla/5.0 (Windows NT 10.0; Win64; x64) AppleWebKit/537.36 (KHTML, like Gecko) Chrome/109.0.0.0 Safari/537.36" version="22.0.4" etag="5GC--2N9ZvEA_YUG1EXC" type="github">
  <diagram name="第 1 页" id="GnJPuIYjDnsLOGgnS9-f">
    <mxGraphModel>
      <root>
        <mxCell id="0" />
        <mxCell id="1" parent="0" />
      </root>
    </mxGraphModel>
  </diagram>
</mxfile>
